<svg viewBox="0 0 256 256" xmlns="http://www.w3.org/2000/svg"><path d="m220 67.99756a32 32 0 1 0 -36 31.74109v4.2594a20.02271 20.02271 0 0 1 -19.999 20l-72.002.00146a27.9167 27.9167 0 0 0 -19.999 8.42285v-32.68371a32 32 0 1 0 -8 0v56.52026a32 32 0 1 0 8 0v-4.2594a20.02271 20.02271 0 0 1 19.999-20l72.002-.00146a28.03219 28.03219 0 0 0 27.999-28v-4.2594a32.041 32.041 0 0 0 28-31.74109zm-176 0a24 24 0 1 1 24 24 24.02718 24.02718 0 0 1 -24-24zm48 120.00244a24 24 0 1 1 -24-24 24.02718 24.02718 0 0 1 24 24zm96-96.00244a24 24 0 1 1 24-24 24.02718 24.02718 0 0 1 -24 24z"/></svg>